HIERARCHY
ROOT Hips
{
 OFFSET 0.000000 0.000000 0.000000
 CHANNELS 6 Xposition Yposition Zposition Yrotation Xrotation Zrotation
 JOINT Chest
 {
  OFFSET 0.000000 10.388337 0.005184
  CHANNELS 3 Yrotation Xrotation Zrotation
  JOINT Chest2
  {
   OFFSET 0.000000 10.458247 -0.010579
   CHANNELS 3 Yrotation Xrotation Zrotation
   JOINT Chest3
   {
    OFFSET 0.000000 10.415828 0.000000
    CHANNELS 3 Yrotation Xrotation Zrotation
    JOINT Chest4
    {
     OFFSET 0.000000 10.405206 0.000000
     CHANNELS 3 Yrotation Xrotation Zrotation
     JOINT Neck
     {
      OFFSET 0.000000 15.720090 0.000000
      CHANNELS 3 Yrotation Xrotation Zrotation
      JOINT Head
      {
       OFFSET 0.000000 9.732643 -0.022378
       CHANNELS 3 Yrotation Xrotation Zrotation
       End Site
       {
        OFFSET 0.000000 18.603619 -0.011814
       }
      }
     }
     JOINT RightCollar
     {
      OFFSET -3.167735 10.388953 0.000000
      CHANNELS 3 Yrotation Xrotation Zrotation
      JOINT RightShoulder
      {
       OFFSET -14.584825 0.000000 0.000000
       CHANNELS 3 Yrotation Xrotation Zrotation
       JOINT RightElbow
       {
        OFFSET 0.000000 -31.921689 0.000000
        CHANNELS 3 Yrotation Xrotation Zrotation
        JOINT RightWrist
        {
         OFFSET 0.000000 -25.835217 0.000000
         CHANNELS 3 Yrotation Xrotation Zrotation
         End Site
         {
          OFFSET 0.000000 -19.128920 0.000000
         }
        }
       }
      }
     }
     JOINT LeftCollar
     {
      OFFSET 3.167735 10.388953 0.000000
      CHANNELS 3 Yrotation Xrotation Zrotation
      JOINT LeftShoulder
      {
       OFFSET 14.584825 0.000000 0.000000
       CHANNELS 3 Yrotation Xrotation Zrotation
       JOINT LeftElbow
       {
        OFFSET 0.000000 -31.921689 0.000000
        CHANNELS 3 Yrotation Xrotation Zrotation
        JOINT LeftWrist
        {
         OFFSET 0.000000 -25.835217 0.000000
         CHANNELS 3 Yrotation Xrotation Zrotation
         End Site
         {
          OFFSET 0.000000 -19.128920 0.000000
         }
        }
       }
      }
     }
    }
   }
  }
 }
 JOINT RightHip
 {
  OFFSET -8.403278 -0.025659 -0.002592
  CHANNELS 3 Yrotation Xrotation Zrotation
  JOINT RightKnee
  {
   OFFSET 0.000000 -44.040977 0.002477
   CHANNELS 3 Yrotation Xrotation Zrotation
   JOINT RightAnkle
   {
    OFFSET 0.000000 -42.951162 0.004189
    CHANNELS 3 Yrotation Xrotation Zrotation
    JOINT RightToe
    {
     OFFSET 0.000000 -5.494238 12.197485
     CHANNELS 3 Yrotation Xrotation Zrotation
     End Site
     {
      OFFSET 0.000000 -1.538716 6.371628
     }
    }
   }
  }
 }
 JOINT LeftHip
 {
  OFFSET 8.403278 -0.025659 -0.002592
  CHANNELS 3 Yrotation Xrotation Zrotation
  JOINT LeftKnee
  {
   OFFSET 0.000000 -44.040977 0.002477
   CHANNELS 3 Yrotation Xrotation Zrotation
   JOINT LeftAnkle
   {
    OFFSET 0.000000 -42.951162 0.004189
    CHANNELS 3 Yrotation Xrotation Zrotation
    JOINT LeftToe
    {
     OFFSET 0.000000 -5.494238 12.197485
     CHANNELS 3 Yrotation Xrotation Zrotation
     End Site
     {
      OFFSET 0.000000 -1.538716 6.371628
     }
    }
   }
  }
 }
}
MOTION
Frames: 13
Frame Time: 0.008333
0.000000 92.319940 0.000000 0.000000 -5.767889 0.000000 0.000000 11.653876 0.000000 0.000000 -5.885988 0.000000 0.000000 -0.000000 0.000000 0.000000 -0.000000 0.000000 0.000000 12.528808 0.000000 0.000000 0.711711 0.000000 0.000000 -0.000000 0.000000 0.000000 0.000000 -90.000000 0.000000 -2.309063 0.000000 0.000000 2.309063 0.000000 0.000000 -0.000000 0.000000 0.000000 -0.000000 90.000000 0.000000 -2.309063 0.000000 0.000000 2.309063 0.000000 0.000000 8.520374 0.000000 0.000000 1.905768 0.000000 -0.000000 -4.658254 0.000000 0.000000 -0.000000 0.000000 0.000000 8.520374 0.000000 0.000000 1.905768 0.000000 -0.000000 -4.658254 0.000000 0.000000 -0.000000 0.000000
-19.723912 93.493810 109.139917 53.190179 -4.834941 -2.450037 -9.238372 0.058245 -1.474028 -0.517724 0.008454 -0.081892 -0.898099 0.014194 -0.142105 -8.619098 0.044059 -1.368772 -22.483946 16.022310 12.064444 -44.920056 1.806191 28.568589 3.399857 -1.221782 -2.099138 1.900801 11.553271 -9.511241 14.064049 -8.437864 3.981431 -3.034975 5.473274 2.712696 9.877914 0.197767 8.614775 -4.010120 2.089727 3.478111 4.100821 -7.357199 -10.252055 1.242354 -3.167578 0.201956 8.317863 3.910316 -1.771634 1.915387 6.279177 0.790406 10.898296 -6.688860 4.969473 0.002376 0.513571 -0.288867 9.859259 5.707631 10.219847 22.816529 3.521858 1.622898 2.885458 -3.292336 -8.774666 0.014093 0.290472 0.026440
-19.829465 93.510816 109.083148 53.426667 -4.768470 -2.492383 -9.111068 0.057116 -1.521845 -0.504377 0.009079 -0.082431 -0.875479 0.015295 -0.143131 -8.512592 0.055644 -1.397450 -22.386542 16.080210 12.024229 -44.717786 1.848047 28.458312 3.384487 -1.162518 -2.056417 1.698040 11.943131 -9.643905 14.130917 -8.578138 4.087572 -2.997110 5.581487 2.744599 9.912790 0.189822 8.585784 -4.197058 2.034209 3.538854 4.006740 -7.175692 -10.207843 1.260243 -3.203358 0.223954 7.798322 3.937261 -1.776857 1.849123 6.153437 0.821038 10.363095 -6.766384 5.203581 -0.010318 0.569834 -0.390794 9.592440 5.576203 10.236307 22.840613 3.485475 1.579751 2.874794 -3.202983 -8.719596 0.009490 0.271067 0.035871
-19.948970 93.529192 109.022483 53.689086 -4.703486 -2.536207 -8.983624 0.055856 -1.565365 -0.491049 0.009653 -0.083256 -0.852867 0.016309 -0.144653 -8.403966 0.066428 -1.431812 -22.281629 16.145626 11.979328 -44.498636 1.898024 28.335589 3.358483 -1.101547 -2.008622 1.540008 12.324328 -9.746808 14.206767 -8.712026 4.166837 -2.940296 5.697647 2.790118 9.945641 0.189873 8.568518 -4.373078 1.980214 3.598078 3.925200 -6.986917 -10.155935 1.281828 -3.236880 0.254687 7.255836 3.940981 -1.791260 1.862387 6.085079 0.837905 9.813566 -6.873279 5.481787 -0.016957 0.596669 -0.492368 9.306375 5.422497 10.254432 22.813058 3.467920 1.545387 2.901231 -3.074881 -8.667535 0.003324 0.219308 0.043498
-20.075122 93.547502 108.961638 53.979706 -4.650244 -2.571011 -8.853573 0.062176 -1.617537 -0.477891 0.010324 -0.084336 -0.830522 0.017491 -0.146620 -8.294415 0.078946 -1.471495 -22.173809 16.214130 11.930101 -44.272384 1.950558 28.203604 3.319982 -1.040719 -1.951348 1.410800 12.695861 -9.831464 14.297546 -8.841061 4.227088 -2.863186 5.821359 2.844792 9.972964 0.196240 8.565702 -4.537616 1.927535 3.653628 3.855083 -6.792561 -10.095027 1.292846 -3.262971 0.291819 6.730293 3.927714 -1.821019 1.951790 6.102876 0.843436 9.234632 -7.034588 5.778286 -0.019862 0.604207 -0.575662 8.994275 5.260756 10.263006 22.746892 3.481761 1.529625 2.953715 -2.986553 -8.628602 0.002126 0.197999 0.051118
-20.205019 93.564302 108.905208 54.308724 -4.602987 -2.606908 -8.727891 0.073715 -1.667757 -0.465327 0.011142 -0.085572 -0.809165 0.018929 -0.148860 -8.187602 0.094155 -1.514327 -22.064531 16.282292 11.875007 -44.042409 1.999630 28.061249 3.272756 -0.980213 -1.884127 1.292549 13.055043 -9.911167 14.411720 -8.970648 4.278624 -2.772508 5.954474 2.901710 9.994064 0.207322 8.571340 -4.691427 1.878054 3.707477 3.795627 -6.593394 -10.021553 1.295345 -3.282683 0.330555 6.250741 3.888131 -1.848810 2.108057 6.218428 0.841462 8.598697 -7.208695 6.052037 -0.018240 0.559296 -0.616244 8.657573 5.089242 10.272346 22.657266 3.513674 1.529683 3.010702 -2.901944 -8.598623 0.000499 0.178497 0.055931
-20.334609 93.578425 108.856312 54.684838 -4.562270 -2.644858 -8.610699 0.092727 -1.714023 -0.453785 0.012151 -0.086942 -0.789524 0.020697 -0.151327 -8.087320 0.112872 -1.559214 -21.953340 16.350136 11.812828 -43.807608 2.044600 27.906288 3.218398 -0.917840 -1.810578 1.173752 13.395266 -9.989163 14.556371 -9.105388 4.324208 -2.678690 6.099915 2.958907 10.005073 0.223533 8.576260 -4.827443 1.833527 3.766493 3.746884 -6.390159 -9.936825 1.300405 -3.294906 0.369003 5.839684 3.822885 -1.869322 2.302402 6.442107 0.831221 7.915012 -7.380403 6.272657 -0.014365 0.455239 -0.599920 8.308031 4.912943 10.286031 22.562237 3.554391 1.541202 3.039581 -2.821027 -8.576277 -0.001286 0.163001 0.059131
-20.459776 93.589009 108.816335 55.108750 -4.531416 -2.678129 -8.503299 0.121214 -1.758502 -0.443504 0.013469 -0.088531 -0.772013 0.023004 -0.154172 -7.995786 0.137138 -1.607253 -21.836003 16.419535 11.743474 -43.559774 2.087065 27.737064 3.163245 -0.855825 -1.736746 1.050602 13.716430 -10.062637 14.724425 -9.245750 4.365414 -2.585679 6.254007 3.018023 10.010573 0.242203 8.575314 -4.942178 1.792446 3.833304 3.705470 -6.182897 -9.843684 1.311803 -3.300344 0.407444 5.515046 3.738751 -1.891785 2.485047 6.775790 0.810042 7.248432 -7.548609 6.431910 -0.010122 0.299947 -0.530539 7.967469 4.739004 10.302417 22.476145 3.597788 1.556757 3.007056 -2.742063 -8.560955 -0.002601 0.150268 0.063912
-20.577102 93.595500 108.785690 55.571413 -4.515146 -2.697649 -8.404562 0.158736 -1.805995 -0.434372 0.015167 -0.090428 -0.756443 0.025970 -0.157548 -7.912155 0.168213 -1.660142 -21.706013 16.493325 11.666776 -43.286319 2.129397 27.551003 3.113550 -0.797472 -1.667624 0.929234 14.025481 -10.126863 14.900409 -9.390766 4.406776 -2.495901 6.409854 3.077083 10.020898 0.265781 8.567984 -5.039083 1.748712 3.910531 3.671130 -5.966553 -9.747345 1.329528 -3.301587 0.447384 5.281151 3.650358 -1.931013 2.611143 7.205932 0.780358 6.658628 -7.720438 6.533706 -0.006608 0.113373 -0.422801 7.658611 4.574554 10.315909 22.402688 3.642027 1.570369 2.904481 -2.664505 -8.551562 -0.003285 0.139082 0.072076
-20.684641 93.597655 108.764836 56.064848 -4.517431 -2.699620 -8.311912 0.203708 -1.859627 -0.425951 0.017185 -0.092576 -0.742071 0.029494 -0.161360 -7.832902 0.205305 -1.717534 -21.558669 16.573609 11.582586 -42.978134 2.173501 27.346168 3.067705 -0.741627 -1.606271 0.817001 14.327512 -10.175906 15.068834 -9.538743 4.451868 -2.413163 6.562961 3.133688 10.035290 0.300001 8.553181 -5.117865 1.698379 4.003269 3.649165 -5.736915 -9.654890 1.352351 -3.297414 0.490128 5.121433 3.578234 -2.000186 2.662785 7.702294 0.751019 6.191745 -7.899322 6.581901 -0.003537 -0.085013 -0.291559 7.390082 4.423799 10.323781 22.328046 3.690484 1.580648 2.746355 -2.591469 -8.548441 -0.003686 0.129376 0.082987
-20.781997 93.595480 108.754090 56.584690 -4.539012 -2.684862 -8.223180 0.254735 -1.918941 -0.417855 0.019447 -0.094801 -0.728242 0.033444 -0.165308 -7.755016 0.247461 -1.776973 -21.390662 16.660395 11.491781 -42.629507 2.218717 27.123459 3.025219 -0.684457 -1.555081 0.716180 14.620085 -10.206789 15.210266 -9.687117 4.507976 -2.336823 6.711955 3.186465 10.049471 0.343729 8.528851 -5.177619 1.641688 4.112569 3.647936 -5.487021 -9.571586 1.371723 -3.289015 0.535972 5.018493 3.540333 -2.103908 2.657626 8.230744 0.729216 5.852188 -8.082700 6.582230 -0.000905 -0.282827 -0.149295 7.159002 4.284123 10.326141 22.234221 3.752579 1.590865 2.552940 -2.528870 -8.553884 -0.004436 0.121249 0.095142
-20.870039 93.589185 108.753485 57.130296 -4.577175 -2.657045 -8.138750 0.309516 -1.981312 -0.410013 0.021877 -0.096949 -0.714839 0.037691 -0.169122 -7.678250 0.293567 -1.835635 -21.199370 16.753381 11.395244 -42.236063 2.264165 26.884003 2.987232 -0.620816 -1.514233 0.626709 14.898765 -10.220686 15.314370 -9.834227 4.581585 -2.267662 6.852809 3.231756 10.061353 0.395090 8.493032 -5.217927 1.574445 4.238062 3.675315 -5.206499 -9.498327 1.386032 -3.277002 0.584597 4.971772 3.548327 -2.232542 2.634842 8.762575 0.714654 5.582617 -8.265121 6.547025 0.000562 -0.472960 -0.007077 6.955066 4.150645 10.324622 22.110169 3.833811 1.603100 2.344452 -2.479926 -8.568210 -0.006078 0.115323 0.107012
-20.950170 93.579174 108.763091 57.708160 -4.629066 -2.622029 -8.061917 0.365557 -2.042557 -0.402753 0.024388 -0.098935 -0.702421 0.042082 -0.172651 -7.605924 0.341966 -1.891025 -20.983500 16.852091 11.292208 -41.795466 2.308505 26.626321 2.955859 -0.549649 -1.483212 0.541324 15.167319 -10.220346 15.386809 -9.982825 4.675708 -2.207878 6.979101 3.266483 10.067012 0.456167 8.442470 -5.238485 1.494685 4.377837 3.734515 -4.892172 -9.427165 1.405281 -3.261774 0.634925 4.982088 3.608339 -2.370318 2.629049 9.279627 0.703013 5.324602 -8.441929 6.494358 0.001613 -0.652646 0.123154 6.760257 4.020678 10.322981 21.945715 3.934438 1.617607 2.137327 -2.444818 -8.591247 -0.008635 0.112089 0.117680
